
<svg version="1.0" xmlns="http://www.w3.org/2000/svg" width="700px" height="700px"  aria-hidden="true" role="img"  viewBox="0 0 564 564" preserveAspectRatio="xMidYMid meet" class="iconify iconify--logos">
 <g fill="#1a1a1a">
  <path d="M267.9 425.5 c-19.8 -5.4 -39.8 -14.4 -57.2 -25.9 -12.2 -8 -28.8 -24.7 -36.5 -36.4 -3.4 -5.2 -6.3 -9.9 -6.5 -10.5 -0.4 -1.1 -2.5 -0.7 -16.4 2.9 -2.2 0.6 -2.3 0.3 -2.3 -4.7 0.1 -17.5 9.3 -38.3 23.9 -54 5.1 -5.4 6 -6 6.1 -4.1 0 3.2 3.8 16.9 6 21.8 2.5 5.9 8.5 15 13.8 21.2 5.1 6.1 5 6.4 -3.6 8.3 -2.9 0.7 -5.5 1.6 -5.7 2 -0.3 0.4 3.7 4.9 8.8 10.1 6.2 6.3 11.3 10.5 15.7 12.8 5.9 3.2 7.3 3.5 14.5 3.5 6.7 0 8.9 -0.4 13.7 -2.8 9.1 -4.5 15.7 -13.2 19.1 -25.7 1.3 -4.5 4.7 -59 4.7 -74.2 l0 -2.8 16 0 16 0 0 3.6 c0 2 0.7 18.1 1.5 35.8 1.4 29.1 1.8 32.8 4.1 40.1 4.2 13.4 12.1 21.9 23.3 25.1 12.9 3.8 24.6 -0.9 38.8 -15.4 5.1 -5.2 9.1 -9.7 8.8 -10.1 -0.2 -0.4 -2.8 -1.3 -5.7 -2 -8.6 -1.9 -8.7 -2.2 -3.6 -8.3 10.5 -12.5 15.7 -23.2 18.9 -38.6 l1.3 -6.2 3.4 3.2 c14 13.6 24.6 35.4 25.9 53.6 0.3 4.6 0.2 8.2 -0.3 8.2 -0.5 0 -4.1 -0.9 -7.9 -2 -3.8 -1.1 -7.7 -2 -8.5 -2 -0.9 0 -3.3 3 -5.5 6.6 -18.4 31.5 -56.2 57.1 -99.8 67.5 -9.8 2.4 -14 2.3 -24.8 -0.6z m-101.6 -86.6 l4.2 -1 0.1 -12.7 c0 -7 0.6 -14.7 1.3 -17.1 0.7 -2.3 1 -4.5 0.8 -4.7 -1 -1 -7.7 10.6 -9.8 16.6 -2.6 7.7 -3.8 20 -2 20 0.7 0 3.1 -0.5 5.4 -1.1z m237.7 -3.5 c0 -9 -5.3 -23.6 -11 -30.4 l-2.2 -2.5 0.6 2.5 c1.7 7 2.8 19.2 2.3 25.6 l-0.5 7.2 3.6 1 c6.9 1.8 7.2 1.7 7.2 -3.4z"/>
  <path d="M147.5 297.8 c-1.5 -7 -5.5 -34.7 -5.5 -38.3 0 -1.7 2.3 -3.5 10.9 -8.4 6 -3.4 16.2 -8.6 22.8 -11.5 l11.8 -5.4 0.5 -11.8 c0.5 -9.4 1.1 -13 2.8 -16.9 2.7 -5.9 9.1 -12.9 14.4 -15.6 2.1 -1.1 17.3 -4.9 33.9 -8.4 16.6 -3.6 30.6 -6.8 31 -7.1 0.5 -0.3 0.9 -4 0.9 -8.3 0 -9.2 0.1 -9.1 -11.6 -9.1 -3.9 0 -11.2 -0.3 -16.2 -0.6 l-9.2 -0.7 0 -6.3 0 -6.3 5.3 -0.5 c2.8 -0.3 11.3 -0.8 18.8 -1.2 l13.7 -0.6 0.7 -16.4 0.7 -16.4 8.9 0 8.9 0 0 5.8 c0 3.3 0.3 10.6 0.6 16.4 l0.7 10.6 13.6 0.6 c7.5 0.4 16 0.9 18.9 1.2 l5.2 0.5 0 6.3 0 6.3 -9.2 0.7 c-5 0.3 -12.6 0.6 -16.9 0.6 -11.2 0 -10.9 -0.2 -10.9 9.6 0 7.8 0.1 8.4 2.3 8.9 1.2 0.3 14.7 3.2 30 6.5 15.3 3.3 29.4 6.9 31.5 7.9 5.5 2.8 11.1 8.9 14.1 15.1 2.2 4.7 2.6 7.2 2.9 17.3 0.2 6.4 0.8 11.7 1.3 11.7 2 0 25.6 11.3 36 17.1 6.9 4 10.9 6.8 10.9 7.9 0 4.5 -5.4 39.7 -6.2 40.5 -0.2 0.2 -4.6 -2.6 -9.8 -6.1 -24.6 -16.5 -56.6 -28.5 -90.5 -34 -15.3 -2.5 -52.6 -2.5 -67.4 -0.1 -36 6.1 -64.5 17 -91.3 34.9 -8.4 5.6 -8.8 5.7 -9.3 3.6z m71 -73.3 c12.4 -3.2 35.8 -7.2 45.5 -7.7 l4.5 -0.3 0.5 -13.8 c0.4 -10.9 0.2 -13.7 -0.8 -13.7 -3.5 0 -56 12.3 -57.9 13.5 -1.2 0.8 -3.4 3.1 -5 5.1 -2.5 3.3 -2.8 4.7 -3.2 12.7 -0.3 8.4 -0.2 8.9 1.5 8.3 1.1 -0.4 7.8 -2.3 14.9 -4.1z m141.5 -3.4 c0 -8.1 -1.1 -11.5 -4.8 -15.4 -3.8 -4.1 -4.5 -4.3 -19.4 -7.6 -7.3 -1.7 -19.6 -4.4 -27.2 -6.1 -7.6 -1.7 -14 -2.9 -14.1 -2.8 -0.1 0.2 0.1 6.4 0.4 13.8 l0.6 13.5 4 0.2 c13.6 0.9 44.3 6.5 53.2 9.8 7 2.5 7.3 2.3 7.3 -5.4z"/>
 </g>
 <g fill="#0695d6">
  <path d="M236 454.3 c-3.5 -1.3 -9.2 -1.6 -26.5 -1.7 l-22 -0.1 -9 -3.3 c-4.9 -1.9 -10.8 -4.1 -13 -4.9 -2.3 -1 -8.3 -1.8 -14.1 -2.1 -12.3 -0.5 -21.5 1.3 -31.4 6.3 -6.2 3.1 -7 3.3 -8.4 1.9 -0.9 -0.8 -1.6 -1.9 -1.6 -2.3 0 -3 13.9 -9.6 24.4 -11.6 15.6 -3 25.9 -1.8 42.1 4.9 l10 4.1 21.5 0.1 c15.7 0 23.1 0.5 27.6 1.6 9.8 2.5 12.3 4.5 9.2 7.6 -1.5 1.5 -3.2 1.4 -8.8 -0.5z"/>
  <path d="M319.2 454.8 c-3.1 -3.1 -0.6 -5.1 9.2 -7.6 4.5 -1.2 11.5 -1.6 27.1 -1.6 19.6 -0.1 21.4 -0.3 27 -2.4 16.2 -6.4 20 -7.4 29.5 -7.9 12.2 -0.7 22.9 1.4 33 6.5 8.4 4.2 10.5 6.6 7.7 8.7 -1.6 1.1 -2.9 0.8 -10 -2.5 -4.5 -2.1 -11 -4.4 -14.4 -5 -7.8 -1.6 -24.5 -0.8 -29.8 1.3 -2.2 0.8 -8 3 -13 4.9 l-9 3.3 -18.9 -0.3 c-16 -0.2 -20.1 0.1 -27.3 1.8 -10 2.4 -9.6 2.3 -11.1 0.8z"/>
  <path d="M271.5 452.1 c-11.8 -1.5 -23.9 -6.3 -36.8 -14.5 -12 -7.7 -13 -7.9 -28.7 -8.5 -16.3 -0.7 -20 -1.9 -30.9 -10.1 -12.4 -9.4 -24.5 -12 -39 -8.4 -7.8 1.9 -18.3 7.2 -23.9 12 -4.7 4 -8.2 4.5 -8.2 1.2 0.1 -2.8 1.3 -4.4 6.7 -8.6 6.4 -5 17 -9.8 25.7 -11.7 14 -3.1 27.6 -0.4 39.7 8 15.1 10.3 13.8 9.9 29.9 10.5 14.2 0.5 14.6 0.6 22 4.3 4.1 2 11.3 5.9 16 8.7 19.9 11.8 42.2 14.1 63 6.4 3.9 -1.5 11.9 -5.5 17.6 -9.1 14.5 -8.7 19.9 -10.4 32.9 -10.2 5.8 0.1 12 -0.4 14.2 -1.1 2.1 -0.7 8.1 -4.1 13.3 -7.6 15.6 -10.4 26.6 -13.1 41.4 -10 16.3 3.4 33.6 13.8 33.6 20.2 0 3.6 -3.5 3.1 -8.1 -1.1 -9.1 -8.2 -26.3 -14.1 -38.4 -13.2 -9.3 0.7 -15.1 3.1 -26.7 11 -5.3 3.6 -11.4 7 -13.5 7.6 -2.1 0.6 -9 1.1 -15.3 1.1 -13.3 0.1 -17.1 1.3 -30.5 9.6 -9.2 5.7 -18 9.7 -26.3 11.8 -7.1 1.9 -21.8 2.7 -29.7 1.7z"/>
  <path d="M205.5 295.5 c-3 -3 -3.2 -6.4 -0.4 -9.9 1.5 -1.9 3 -2.6 5.5 -2.6 7.1 0 10.1 7.4 5.1 12.8 -2.7 3 -7.1 2.9 -10.2 -0.3z"/>
  <path d="M348.9 296.7 c-3.1 -2.4 -4.2 -5.6 -2.8 -8.8 1.4 -3.5 3.6 -4.9 7.8 -4.9 3.5 0 7.1 3.9 7.1 7.7 0 5.3 -7.9 9.3 -12.1 6z"/>
  <path d="M236.3 289.4 c-4.4 -2.2 -6.4 -8.1 -3.9 -11.8 4.1 -6.4 10.4 -7 15.1 -1.4 3.2 3.8 3.2 7 -0.2 10.7 -3.5 3.8 -6.9 4.6 -11 2.5z"/>
  <path d="M319.4 289.6 c-3.5 -1.5 -6 -7 -4.9 -10.5 0.9 -2.9 6.3 -7.1 9.1 -7.1 1.3 0 3.8 1.3 5.6 2.9 7.9 7 -0.1 19 -9.8 14.7z"/>
 </g>
</svg>